<svg xmlns="http://www.w3.org/2000/svg" width="1024" height="1024" viewBox="0 0 1024 1024" version="1.1"><path d="M 805.448 173.014 C 790.426 177.275, 780.743 183.690, 764.047 200.442 C 754.649 209.871, 751.092 212.836, 749.547 212.530 C 748.421 212.307, 742.681 211.858, 736.790 211.533 L 726.081 210.942 723.824 216.221 C 722.583 219.124, 719.400 225.947, 716.750 231.383 C 714.100 236.818, 712.136 241.469, 712.384 241.718 C 712.633 241.967, 718.836 241.733, 726.168 241.199 L 739.500 240.228 742.337 242.970 C 744.986 245.531, 745.102 245.969, 744.092 249.606 C 742.268 256.178, 742.363 256.310, 748.390 255.557 C 753.615 254.904, 753.850 254.981, 756.029 258.041 C 758.147 261.015, 758.214 261.615, 757.186 268.350 C 756.586 272.282, 755.475 278.313, 754.717 281.750 C 753.959 285.188, 753.397 288, 753.467 288 C 753.538 288, 760.774 285.526, 769.548 282.502 L 785.500 277.005 786 264.377 L 786.500 251.750 790 249.226 C 791.925 247.838, 800.151 239.907, 808.279 231.601 C 824.628 214.897, 827.503 210.445, 831.041 196.364 C 832.489 190.600, 832.999 185.790, 832.792 179.864 L 832.500 171.500 822 171.399 C 814.825 171.330, 809.584 171.841, 805.448 173.014 M 779.468 208.737 C 767.881 212.068, 760.399 226.134, 766.017 234.024 C 769.674 239.159, 777.616 240.115, 783.985 236.187 C 787.910 233.766, 792.049 229.748, 793.524 226.927 C 796.602 221.037, 795.740 211.812, 791.889 209.431 C 789.039 207.670, 784.134 207.396, 779.468 208.737 M 730.850 266.901 C 728.412 269.046, 723.737 273.881, 720.459 277.644 C 715.151 283.739, 714.937 284.140, 718.500 281.318 C 724.193 276.807, 737.660 263, 736.366 263 C 735.769 263, 733.287 264.755, 730.850 266.901 M 713.680 268.533 C 708.785 274.258, 709.363 274.244, 715 268.500 C 717.429 266.025, 718.985 264.015, 718.458 264.033 C 717.931 264.051, 715.781 266.076, 713.680 268.533 M 729.206 283.004 C 727.394 285.186, 726.494 286.714, 727.206 286.399 C 728.909 285.646, 734.445 278.995, 733.348 279.018 C 732.882 279.028, 731.018 280.821, 729.206 283.004 M 690 317.650 C 682.575 326.802, 667.790 345.138, 657.145 358.395 C 630.660 391.381, 527.543 519.673, 488.701 567.965 C 431.323 639.302, 414.466 660.390, 408.323 668.519 C 404.989 672.929, 401.528 677.147, 400.631 677.891 C 399.734 678.636, 399 679.879, 399 680.654 C 399 681.429, 398.325 682.322, 397.500 682.638 C 396.675 682.955, 396 683.818, 396 684.557 C 396 685.296, 395.378 686.260, 394.618 686.700 C 393.858 687.140, 390.717 690.650, 387.636 694.500 C 384.556 698.350, 381.424 702.175, 380.676 703 C 377.098 706.944, 343 749.834, 343 750.390 C 343 750.740, 341.482 752.707, 339.628 754.763 C 327.799 767.871, 321.911 774.989, 309.237 791.500 C 305.860 795.900, 298.577 805.125, 293.053 812 C 287.529 818.875, 283.007 824.890, 283.005 825.367 C 283.002 825.843, 284.012 825.962, 285.250 825.630 C 286.488 825.299, 304.204 825.021, 324.621 825.014 L 361.742 825 419.121 737.035 L 476.500 649.071 588.641 649.035 L 700.782 649 704.897 660.250 C 707.161 666.438, 721.353 705.700, 736.435 747.500 L 763.858 823.500 817.822 823.759 L 871.787 824.017 818.518 682.259 C 703.965 377.415, 690.821 342.503, 690.165 341.331 C 689.330 339.838, 626.368 436.569, 626.809 438.666 C 626.980 439.475, 636.604 466.543, 648.197 498.818 C 659.789 531.093, 669.490 558.288, 669.754 559.250 C 670.207 560.904, 666.529 561, 602.617 561 C 565.427 561, 535 560.720, 535 560.378 C 535 560.035, 554.618 529.773, 578.596 493.128 C 602.574 456.482, 631.615 412.100, 643.131 394.500 C 677.716 341.644, 681.329 336.115, 691.501 320.500 C 696.874 312.250, 701.937 304.488, 702.751 303.250 C 706.122 298.122, 702.775 301.902, 690 317.650 M 552.571 902.571 C 550.613 904.530, 550.569 906.397, 552.445 907.954 C 554.747 909.865, 558.451 908.844, 558.827 906.195 C 559.454 901.772, 555.602 899.541, 552.571 902.571 M 402.455 915.455 C 399.401 918.508, 399.236 922.999, 402.083 925.575 C 403.310 926.685, 406.286 927.674, 409.323 927.980 C 413.184 928.369, 414.563 928.940, 414.813 930.250 C 415.105 931.783, 414.270 932, 408.073 932 L 401 932 401 935 L 401 938 407.435 938 C 410.974 938, 415.001 937.570, 416.383 937.045 C 422.942 934.551, 423.601 925.985, 417.432 923.407 C 415.580 922.633, 412.442 922, 410.459 922 C 407.565 922, 406.919 921.655, 407.186 920.250 C 407.449 918.870, 408.732 918.437, 413.260 918.200 C 418.603 917.921, 419 917.731, 419 915.450 C 419 913.082, 418.765 913, 411.955 913 C 405.808 913, 404.596 913.313, 402.455 915.455 M 431.844 915.255 C 427.537 918.896, 427 921.078, 427 934.934 L 427 948 430.500 948 L 434 948 434 941.443 L 434 934.887 436.223 936.443 C 439.078 938.443, 444.925 938.441, 447.783 936.439 C 454.996 931.387, 454.552 918.405, 447.033 914.517 C 442.529 912.188, 435.042 912.552, 431.844 915.255 M 462.143 915.533 C 456.164 920.564, 455.727 929.573, 461.196 935.042 C 464.856 938.702, 470.367 939.073, 474.365 935.927 L 477 933.855 477 935.927 C 477 937.629, 477.626 938, 480.500 938 L 484 938 484 930.968 C 484 918.504, 479.847 913, 470.442 913 C 466.242 913, 464.534 913.521, 462.143 915.533 M 496.270 914.483 C 492.493 916.125, 489.009 921.311, 489.004 925.300 C 488.995 931.837, 493.653 936.281, 501.895 937.599 C 505.967 938.250, 506 938.230, 506 935.128 C 506 932.319, 505.694 932, 503 932 C 501.333 932, 499.111 931.111, 498 930 C 493.830 925.830, 496.659 919, 502.557 919 C 505.716 919, 506 918.752, 506 916 C 506 913.274, 505.703 913.004, 502.750 913.039 C 500.962 913.061, 498.046 913.710, 496.270 914.483 M 515.241 914.325 C 511.708 916.288, 509.693 919.913, 509.592 924.492 C 509.413 932.635, 513.996 936.827, 524.077 937.741 L 530 938.278 530 935.139 C 530 932.079, 529.886 932, 525.434 932 C 520.271 932, 517 930.629, 517 928.465 C 517 927.300, 518.641 927, 525 927 L 533 927 533 923.950 C 533 920.180, 530.618 915.401, 528.055 914.030 C 525.428 912.623, 517.997 912.795, 515.241 914.325 M 552 925.500 L 552 938 555.500 938 L 559 938 559 925.500 L 559 913 555.500 913 L 552 913 552 925.500 M 568.400 916.400 C 565.032 919.768, 565 919.884, 565 928.900 L 565 938 568.500 938 L 572 938 572 929.523 C 572 921.584, 572.159 920.942, 574.500 919.408 C 576.816 917.891, 577.184 917.891, 579.500 919.408 C 581.841 920.942, 582 921.584, 582 929.523 L 582 938 585.500 938 L 589 938 589 928.423 C 589 919.171, 588.901 918.747, 586.077 915.923 C 583.533 913.379, 582.418 913, 577.477 913 C 572.354 913, 571.468 913.332, 568.400 916.400 M 601.304 914.956 C 596.379 917.959, 594.657 921.269, 595.256 926.582 C 595.867 932.004, 598.850 935.586, 603.926 936.996 C 609.911 938.658, 611 938.351, 611 935 C 611 932.545, 610.586 932, 608.723 932 C 604.869 932, 602 929.268, 602 925.598 C 602 921.682, 604.573 919, 608.329 919 C 610.630 919, 611 918.585, 611 916 C 611 913.281, 610.695 913, 607.750 913.004 C 605.962 913.006, 603.062 913.884, 601.304 914.956 M 438 918.704 C 433.879 920.149, 432.533 927.363, 435.829 930.345 C 439.969 934.092, 446 931.137, 446 925.362 C 446 920.561, 442.058 917.281, 438 918.704 M 467.974 919.336 C 464.765 920.949, 463.504 925.190, 465.186 928.715 C 466.217 930.877, 467.314 931.567, 470.093 931.801 C 472.160 931.974, 474.129 931.549, 474.755 930.795 C 479.476 925.107, 474.206 916.202, 467.974 919.336 M 518.320 919.199 C 515.569 922.746, 515.786 923, 521.563 923 C 527.228 923, 527.240 922.994, 525.759 920.750 C 524.053 918.167, 519.807 917.282, 518.320 919.199 M 616.667 930.667 C 616.300 931.033, 616 932.600, 616 934.148 C 616 936.340, 616.571 937.105, 618.585 937.611 C 620.297 938.040, 621.691 937.738, 622.714 936.714 C 623.738 935.691, 624.040 934.297, 623.611 932.585 C 623.105 930.571, 622.340 930, 620.148 930 C 618.600 930, 617.033 930.300, 616.667 930.667" stroke="none" fill="#5ce1e6" fill-rule="evenodd"/><path d="M 480 31.121 C 396.077 36.291, 313.699 64.518, 241.997 112.674 C 201.063 140.165, 160.114 179.068, 127.584 221.369 C 45.035 328.713, 12.305 472.261, 39.519 607.606 C 69.083 754.637, 167.442 880.918, 303.500 946.523 C 403.414 994.699, 518.053 1006.788, 625.552 980.483 C 688.731 965.023, 748.900 936.741, 799.261 898.832 C 845.361 864.130, 885.916 821.055, 915.847 775 C 977.980 679.398, 1004.048 567.016, 990.423 453.500 C 980.299 369.156, 947.001 287.293, 895.650 220.500 C 880.636 200.972, 870.278 189.218, 852.024 171 C 813.059 132.110, 772.678 103.082, 724.500 79.330 C 649.240 42.226, 566.040 25.821, 480 31.121 M 498 88.099 C 471.340 90.698, 444.657 103.569, 427.567 122.075 C 419.929 130.346, 410.060 145.430, 404.575 157.216 C 402.198 162.322, 365.494 258.975, 323.009 372 C 280.524 485.025, 224.952 632.850, 199.515 700.500 L 153.265 823.500 206.882 823.783 L 260.500 824.066 264 819.837 C 265.925 817.511, 364.644 698.808, 483.377 556.054 C 602.109 413.299, 699.984 295.609, 700.877 294.519 C 701.769 293.430, 700.475 294.144, 698 296.106 C 695.525 298.068, 677.975 312.025, 659 327.122 C 640.025 342.219, 619.325 358.683, 613 363.708 C 590.081 381.918, 355.619 560.509, 354.183 560.851 C 353.108 561.108, 352.907 560.701, 353.440 559.351 C 353.842 558.333, 384.055 476.275, 420.578 377 C 457.102 277.725, 488.335 193.800, 489.986 190.500 C 495.233 180.008, 500.957 175.385, 510.030 174.310 C 521.237 172.983, 529.268 178.303, 536.287 191.703 C 538.362 195.665, 553.290 235.646, 569.460 280.550 C 585.630 325.454, 599.085 362.418, 599.359 362.692 C 600.142 363.475, 676 305.855, 676 304.477 C 676 301.881, 622.729 161.980, 618.056 152.302 C 602.387 119.854, 578.555 99.860, 545.577 91.494 C 529.340 87.376, 515.531 86.390, 498 88.099 M 814.500 170.626 C 803.907 172.712, 800.638 173.671, 794.338 176.542 C 783.746 181.369, 779.161 184.860, 764.590 199.191 L 751.500 212.065 738.821 211.425 L 726.141 210.785 718.536 226.524 C 714.353 235.181, 711.058 242.365, 711.215 242.488 C 711.372 242.612, 717.729 242.266, 725.341 241.720 L 739.183 240.728 741.732 243.277 C 744.133 245.678, 744.215 246.090, 743.141 250.356 C 741.433 257.136, 741.354 257.037, 747.932 256.349 C 753.826 255.733, 753.878 255.751, 755.874 259.033 C 758.067 262.639, 758.040 263.159, 754.924 277.124 C 753.866 281.867, 753 286.446, 753 287.301 C 753 288.538, 756.306 287.710, 769.250 283.230 C 778.188 280.137, 785.831 277.132, 786.235 276.553 C 786.639 275.974, 786.976 270.479, 786.985 264.343 L 787 253.186 805.141 235.343 C 822.088 218.674, 823.532 216.963, 827.093 209.335 C 829.189 204.844, 831.651 197.488, 832.563 192.988 C 834.487 183.491, 834.177 172.357, 831.948 170.947 C 830.540 170.056, 818.518 169.835, 814.500 170.626 M 777.500 209.900 C 768.402 214.121, 762.192 225.603, 765.523 232.045 C 767.581 236.024, 770.813 238, 775.262 238 C 782.909 238, 792.082 230.960, 794.110 223.536 C 797.402 211.482, 788.985 204.571, 777.500 209.900 M 733.403 264.233 C 727.728 268.654, 726.785 269.601, 719.194 278.500 C 712.629 286.197, 712.095 287.080, 715.509 284.598 C 720.854 280.712, 726.124 275.702, 732.216 268.714 C 737.612 262.525, 738.136 260.546, 733.403 264.233 M 715.427 266.250 C 708.424 273.923, 707.370 275.340, 709.500 274.215 C 711.483 273.167, 717.935 266.653, 719.371 264.250 C 720.841 261.791, 718.338 263.060, 715.427 266.250 M 730.427 281.250 C 728.795 283.038, 726.345 285.817, 724.980 287.428 L 722.500 290.355 725.500 288.283 C 728.486 286.220, 735 279.530, 735 278.527 C 735 277.174, 733.130 278.288, 730.427 281.250 M 703.611 300.250 C 691.137 315.449, 667.498 344.780, 613.547 412 C 579.778 454.075, 532.958 512.350, 509.502 541.500 C 486.047 570.650, 440.692 627.125, 408.713 667 C 376.735 706.875, 345.433 745.800, 339.153 753.500 C 332.874 761.200, 323.425 772.900, 318.155 779.500 C 312.886 786.100, 302.596 798.974, 295.287 808.109 C 287.979 817.244, 282 824.998, 282 825.340 C 282 826.152, 345.253 826.164, 355 825.354 L 362.500 824.731 419.500 737.380 L 476.500 650.029 588.599 650.015 L 700.698 650 732.099 736.997 L 763.500 823.994 816.168 823.997 C 845.136 823.999, 869.548 824.273, 870.418 824.607 C 871.288 824.941, 872 824.714, 872 824.102 C 872 823.491, 840.466 739.180, 801.924 636.745 C 763.382 534.310, 722.587 425.750, 711.267 395.500 C 699.948 365.250, 690.419 340.188, 690.093 339.806 C 689.584 339.211, 629.034 431.019, 626.637 436.020 C 626.011 437.326, 631.740 454.421, 647.548 498.416 C 659.523 531.744, 668.987 559.347, 668.578 559.756 C 668.169 560.165, 637.873 560.647, 601.253 560.826 L 534.671 561.151 536.188 558.826 C 547.079 542.133, 627.121 419.827, 642.422 396.500 C 659.866 369.904, 679.374 339.927, 686.543 328.699 C 687.666 326.940, 692.938 318.863, 698.259 310.750 C 703.579 302.637, 707.745 296, 707.516 296 C 707.287 296, 705.530 297.913, 703.611 300.250 M 397.328 816.938 C 395.033 817.980, 392.441 819.923, 391.568 821.256 C 390.121 823.465, 365.044 890.507, 365.013 892.250 C 365.006 892.663, 369.194 893, 374.320 893 L 383.639 893 386.182 885.750 L 388.726 878.500 405.029 878.500 L 421.333 878.500 423.750 885.750 L 426.167 893 436.075 893 L 445.984 893 444.516 889.250 C 443.709 887.188, 437.862 871.354, 431.523 854.064 C 424.760 835.616, 419.069 821.618, 417.749 820.185 C 412.882 814.899, 404.688 813.597, 397.328 816.938 M 514 830 L 514 837 509.500 837 L 505 837 505 844 L 505 851 509.393 851 L 513.786 851 514.145 866.250 C 514.452 879.284, 514.794 881.993, 516.502 884.895 C 520.344 891.424, 522.836 892.462, 535.570 892.836 L 547 893.172 547 886.086 L 547 879 540.035 879 C 534.173 879, 532.907 878.694, 532.035 877.066 C 531.466 876.002, 531 869.702, 531 863.066 L 531 851 539 851 L 547 851 547 844.042 L 547 837.084 539.250 836.792 L 531.500 836.500 531.204 829.750 L 530.909 823 522.454 823 L 514 823 514 830 M 399.100 846.201 C 396.295 854.616, 394 861.839, 394 862.251 C 394 862.663, 398.986 863, 405.079 863 L 416.159 863 415.489 859.951 C 414.039 853.347, 406.302 831.601, 405.282 831.261 C 404.667 831.056, 401.997 837.509, 399.100 846.201 M 613 837.766 C 610.525 838.720, 606.206 841.764, 603.403 844.532 C 596.962 850.891, 594.612 857.260, 595.177 866.834 C 596.086 882.265, 606.770 892.746, 622.649 893.783 C 636.096 894.661, 646.903 888.856, 652.416 877.793 C 655.956 870.689, 656.055 859.803, 652.647 852.500 C 650.194 847.243, 644.379 841.304, 638.810 838.368 C 633.973 835.818, 618.965 835.468, 613 837.766 M 460.500 838.573 C 450.590 843.727, 447.292 855.264, 453.060 864.597 C 456.038 869.416, 460.990 871.285, 472.500 871.935 C 482.161 872.481, 482.512 872.583, 482.845 874.944 C 483.453 879.253, 480.936 880, 465.809 880 L 452 880 452 886.500 L 452 893 468.750 892.978 C 487.930 892.953, 491.646 891.953, 496.576 885.489 C 498.834 882.529, 499.493 880.496, 499.770 875.630 C 500.476 863.274, 494.728 858.446, 477.881 857.241 C 468.755 856.588, 467.479 856.270, 467.153 854.566 C 466.455 850.923, 469.596 850, 482.691 850 L 495 850 495 843.500 L 495 837 479.250 837.006 C 466.937 837.011, 462.845 837.353, 460.500 838.573 M 565.218 838.663 C 563.413 839.553, 560.938 841.680, 559.718 843.390 C 557.604 846.354, 557.486 847.590, 557.199 869.750 L 556.897 893 565.428 893 L 573.959 893 574.230 872.250 L 574.500 851.500 582.250 851.208 L 590 850.916 590 843.958 L 590 837 579.250 837.023 C 571.404 837.039, 567.614 837.482, 565.218 838.663 M 621.542 850.729 C 610.538 853.525, 608.503 871.042, 618.427 877.544 C 623.814 881.074, 632.559 879.068, 635.991 873.514 C 638.719 869.101, 638.711 860.678, 635.974 856.190 C 633.078 851.440, 627.321 849.261, 621.542 850.729 M 552.200 902.200 C 549.577 904.823, 551.465 910, 555.045 910 C 555.950 910, 557.506 909.098, 558.504 907.996 C 562.186 903.927, 556.084 898.316, 552.200 902.200 M 433.108 913.660 C 427.428 916.553, 425.885 921.606, 426.219 936.214 L 426.500 948.500 430.250 948.810 L 434 949.121 434 942.611 L 434 936.102 437.508 937.568 C 446.605 941.369, 455.799 932.393, 453.095 922.352 C 450.787 913.780, 441.123 909.578, 433.108 913.660 M 464.270 913.483 C 456.409 916.900, 454.508 928.969, 460.834 935.296 C 464.623 939.085, 470.510 939.659, 473.920 936.572 C 475.764 934.904, 476 934.878, 476 936.345 C 476 937.609, 476.945 938, 480 938 L 484 938 483.996 929.750 C 483.993 923.332, 483.559 920.789, 482.040 918.299 C 478.472 912.446, 471.192 910.473, 464.270 913.483 M 515.015 914.192 C 510.314 917.386, 508.834 920.518, 509.312 926.260 C 509.969 934.150, 515.267 938, 525.468 938 C 530.895 938, 531 937.945, 531 935.124 C 531 932.356, 530.790 932.230, 525.449 931.787 C 522.129 931.512, 519.230 930.659, 518.235 929.664 C 516.684 928.112, 517.168 928, 525.416 928 L 534.260 928 533.739 923.378 C 532.673 913.917, 522.653 909.001, 515.015 914.192 M 570.314 913.950 C 565.724 916.749, 565 918.791, 565 928.934 L 565 938 568.500 938 L 572 938 572 930.155 C 572 921.677, 573.391 919, 577.794 919 C 580.921 919, 582 921.933, 582 930.434 L 582 938 586 938 L 590 938 590 929.901 C 590 924.597, 589.456 920.655, 588.423 918.478 C 585.545 912.414, 576.530 910.160, 570.314 913.950 M 402.174 915.314 C 399.415 918.252, 399.253 924.014, 401.863 926.376 C 402.887 927.303, 406.037 928.336, 408.863 928.670 C 412.231 929.069, 414 929.747, 414 930.639 C 414 931.647, 412.315 932, 407.500 932 L 401 932 401 935 L 401 938 409.045 938 C 416.254 938, 417.346 937.745, 419.545 935.545 C 422.687 932.404, 422.865 927.093, 419.917 924.425 C 418.730 923.350, 415.708 922.316, 412.888 922.020 C 405.820 921.277, 406.347 919.555, 413.750 919.202 C 419.938 918.908, 420 918.875, 420 915.952 L 420 913 412.174 913 C 405.287 913, 404.088 913.278, 402.174 915.314 M 494.763 914.565 C 491.213 916.491, 489 920.869, 489 925.965 C 489 929.172, 489.699 930.792, 492.312 933.643 C 495.099 936.685, 496.446 937.336, 500.812 937.756 L 506 938.254 506 935.239 C 506 932.600, 505.574 932.143, 502.600 931.585 C 498.518 930.819, 496.750 928.922, 496.750 925.307 C 496.750 922.138, 500.163 919, 503.611 919 C 505.599 919, 506 918.496, 506 916 C 506 913.131, 505.814 913.002, 501.750 913.040 C 499.413 913.062, 496.268 913.748, 494.763 914.565 M 551 925.500 L 551 938 555 938 L 559 938 559 925.500 L 559 913 555 913 L 551 913 551 925.500 M 600.190 915.026 C 594.270 918.635, 592.697 926.555, 596.690 932.649 C 598.589 935.547, 603.957 938, 608.401 938 C 611.702 938, 612 937.761, 612 935.111 C 612 932.606, 611.539 932.136, 608.529 931.571 C 604.925 930.895, 602 927.852, 602 924.777 C 602 922.027, 605.667 919, 609 919 C 611.667 919, 612 918.667, 612 916 C 612 913.137, 611.806 913, 607.750 913.004 C 605.253 913.006, 602.135 913.840, 600.190 915.026 M 518.655 919.829 C 516.180 922.564, 516.571 923, 521.500 923 C 526.391 923, 527.698 920.979, 524.066 919.035 C 521.388 917.602, 520.560 917.724, 518.655 919.829 M 435.473 921.401 C 433.421 924.533, 434.302 929.556, 437.174 931.093 C 442.341 933.858, 447.511 927.939, 444.833 922.325 C 442.936 918.347, 437.806 917.840, 435.473 921.401 M 466.655 920.829 C 464.458 923.256, 464.550 928.283, 466.829 930.345 C 470.758 933.901, 476 931.033, 476 925.326 C 476 919.857, 470.103 917.019, 466.655 920.829 M 616.571 930.571 C 614.290 932.853, 614.644 935.720, 617.433 937.548 C 621.921 940.489, 626.453 935.866, 623.500 931.359 C 621.716 928.637, 618.834 928.309, 616.571 930.571" stroke="none" fill="#041c34" fill-rule="evenodd"/><path d="M 481.500 0.654 C 461.237 2.266, 450.471 3.378, 438.625 5.084 C 312.338 23.267, 197.465 88.227, 115.896 187.583 C 53.283 263.849, 14.449 355.704, 3.050 454.500 C -1.189 491.241, -0.976 536.890, 3.608 574 C 14.124 659.144, 44.887 738.501, 94.510 808.500 C 129.319 857.601, 175.535 902.820, 224.724 935.905 C 295.751 983.678, 372.804 1011.770, 460 1021.682 C 482.144 1024.199, 539.784 1024.207, 563 1021.696 C 643.214 1013.021, 716.691 988.008, 782 947.145 C 863.022 896.450, 927.609 825.670, 970.107 741 C 997.667 686.093, 1015.546 624.565, 1021.395 564.500 C 1022.252 555.700, 1023.228 545.800, 1023.564 542.500 C 1024.745 530.909, 1025.123 484.806, 1024.033 485.480 C 1023.366 485.892, 1023 483.974, 1023 480.068 C 1023 470.508, 1020.130 445.082, 1016.897 426 C 991.955 278.772, 902.989 148.931, 774.500 72.233 C 748.861 56.928, 717.588 41.937, 690.449 31.940 C 643.364 14.597, 597.684 4.711, 547.813 1.072 C 534.642 0.111, 491.731 -0.159, 481.500 0.654 M 480 31.121 C 396.077 36.291, 313.699 64.518, 241.997 112.674 C 201.063 140.165, 160.114 179.068, 127.584 221.369 C 45.035 328.713, 12.305 472.261, 39.519 607.606 C 69.083 754.637, 167.442 880.918, 303.500 946.523 C 403.414 994.699, 518.053 1006.788, 625.552 980.483 C 688.731 965.023, 748.900 936.741, 799.261 898.832 C 845.361 864.130, 885.916 821.055, 915.847 775 C 977.980 679.398, 1004.048 567.016, 990.423 453.500 C 980.299 369.156, 947.001 287.293, 895.650 220.500 C 880.636 200.972, 870.278 189.218, 852.024 171 C 813.059 132.110, 772.678 103.082, 724.500 79.330 C 649.240 42.226, 566.040 25.821, 480 31.121 M 498 88.099 C 471.340 90.698, 444.657 103.569, 427.567 122.075 C 419.929 130.346, 410.060 145.430, 404.575 157.216 C 402.198 162.322, 365.494 258.975, 323.009 372 C 280.524 485.025, 224.952 632.850, 199.515 700.500 L 153.265 823.500 206.882 823.783 L 260.500 824.066 264 819.837 C 265.925 817.511, 364.644 698.808, 483.377 556.054 C 602.109 413.299, 699.984 295.609, 700.877 294.519 C 701.769 293.430, 700.475 294.144, 698 296.106 C 695.525 298.068, 677.975 312.025, 659 327.122 C 640.025 342.219, 619.325 358.683, 613 363.708 C 590.081 381.918, 355.619 560.509, 354.183 560.851 C 353.108 561.108, 352.907 560.701, 353.440 559.351 C 353.842 558.333, 384.055 476.275, 420.578 377 C 457.102 277.725, 488.335 193.800, 489.986 190.500 C 495.233 180.008, 500.957 175.385, 510.030 174.310 C 521.237 172.983, 529.268 178.303, 536.287 191.703 C 538.362 195.665, 553.290 235.646, 569.460 280.550 C 585.630 325.454, 599.085 362.418, 599.359 362.692 C 600.142 363.475, 676 305.855, 676 304.477 C 676 301.881, 622.729 161.980, 618.056 152.302 C 602.387 119.854, 578.555 99.860, 545.577 91.494 C 529.340 87.376, 515.531 86.390, 498 88.099 M 819.776 170.733 C 822.128 170.945, 825.728 170.942, 827.776 170.727 C 829.824 170.512, 827.900 170.339, 823.500 170.343 C 819.100 170.346, 817.424 170.522, 819.776 170.733 M 833.336 181 C 833.336 185.125, 833.513 186.813, 833.728 184.750 C 833.944 182.688, 833.944 179.313, 833.728 177.250 C 833.513 175.188, 833.336 176.875, 833.336 181 M 760.404 203.013 C 754.852 208.506, 750.585 213, 750.923 213 C 751.261 213, 756.021 208.500, 761.500 203 C 766.979 197.500, 771.246 193.006, 770.981 193.013 C 770.717 193.019, 765.957 197.519, 760.404 203.013 M 817.547 221.834 L 810.594 229.500 816.870 223.500 C 821.999 218.596, 826.121 213.692, 824.785 214.084 C 824.628 214.130, 821.371 217.617, 817.547 221.834 M 787.557 251.223 C 786.335 252.966, 786.041 255.928, 786.189 264.973 L 786.379 276.500 786.939 264.398 C 787.313 256.329, 787.957 251.747, 788.872 250.648 C 789.627 249.742, 789.990 249, 789.679 249 C 789.368 249, 788.413 250, 787.557 251.223 M 713.500 268 C 712.505 269.100, 712.097 270.016, 712.595 270.036 C 713.093 270.056, 712.150 271.221, 710.500 272.625 C 708.850 274.029, 708.405 274.729, 709.511 274.181 C 712.090 272.904, 715.335 269.323, 715.610 267.452 C 715.888 265.554, 715.659 265.614, 713.500 268 M 725.500 275 C 719.788 280.773, 715.667 283.389, 719.595 278.750 L 721.500 276.500 719.290 278.369 C 718.074 279.397, 717.174 280.624, 717.290 281.095 C 717.405 281.567, 716.150 283.124, 714.500 284.556 C 712.148 286.598, 712.488 286.485, 716.074 284.037 C 720.256 281.181, 733.107 269, 731.937 269 C 731.662 269, 728.766 271.700, 725.500 275 M 0.436 511.500 C 0.436 525.800, 0.577 531.511, 0.748 524.191 C 0.919 516.871, 0.918 505.171, 0.747 498.191 C 0.575 491.211, 0.435 497.200, 0.436 511.500 M 669 558.952 C 669 559.476, 666.188 560.064, 662.750 560.260 L 656.500 560.615 663.250 560.807 C 668.669 560.962, 670 560.704, 670 559.500 C 670 558.675, 669.775 558, 669.500 558 C 669.225 558, 669 558.429, 669 558.952 M 532.327 649.750 C 563.582 649.897, 614.432 649.897, 645.327 649.750 C 676.222 649.603, 650.650 649.483, 588.500 649.483 C 526.350 649.483, 501.072 649.603, 532.327 649.750 M 404.968 671.635 C 402.100 675.284, 400.248 677.965, 400.852 677.591 C 402.156 676.785, 411.327 665, 410.650 665 C 410.393 665, 407.836 667.986, 404.968 671.635 M 389 691.500 C 385.629 695.625, 383.097 699, 383.372 699 C 383.647 699, 386.629 695.625, 390 691.500 C 393.371 687.375, 395.903 684, 395.628 684 C 395.353 684, 392.371 687.375, 389 691.500 M 337.091 756.250 C 332.593 761.888, 330.620 764.652, 332.706 762.393 C 337.143 757.589, 346.329 746, 345.701 746 C 345.463 746, 341.588 750.612, 337.091 756.250 M 397.328 816.938 C 395.033 817.980, 392.441 819.923, 391.568 821.256 C 390.121 823.465, 365.044 890.507, 365.013 892.250 C 365.006 892.663, 369.194 893, 374.320 893 L 383.639 893 386.182 885.750 L 388.726 878.500 405.029 878.500 L 421.333 878.500 423.750 885.750 L 426.167 893 436.075 893 L 445.984 893 444.516 889.250 C 443.709 887.188, 437.862 871.354, 431.523 854.064 C 424.760 835.616, 419.069 821.618, 417.749 820.185 C 412.882 814.899, 404.688 813.597, 397.328 816.938 M 514 830 L 514 837 509.500 837 L 505 837 505 844 L 505 851 509.393 851 L 513.786 851 514.145 866.250 C 514.452 879.284, 514.794 881.993, 516.502 884.895 C 520.344 891.424, 522.836 892.462, 535.570 892.836 L 547 893.172 547 886.086 L 547 879 540.035 879 C 534.173 879, 532.907 878.694, 532.035 877.066 C 531.466 876.002, 531 869.702, 531 863.066 L 531 851 539 851 L 547 851 547 844.042 L 547 837.084 539.250 836.792 L 531.500 836.500 531.204 829.750 L 530.909 823 522.454 823 L 514 823 514 830 M 293.296 825.744 C 297.583 825.932, 304.333 825.931, 308.296 825.742 C 312.258 825.552, 308.750 825.399, 300.500 825.400 C 292.250 825.401, 289.008 825.556, 293.296 825.744 M 325.750 825.745 C 330.837 825.927, 339.162 825.927, 344.250 825.745 C 349.337 825.564, 345.175 825.415, 335 825.415 C 324.825 825.415, 320.662 825.564, 325.750 825.745 M 399.100 846.201 C 396.295 854.616, 394 861.839, 394 862.251 C 394 862.663, 398.986 863, 405.079 863 L 416.159 863 415.489 859.951 C 414.039 853.347, 406.302 831.601, 405.282 831.261 C 404.667 831.056, 401.997 837.509, 399.100 846.201 M 613 837.766 C 610.525 838.720, 606.206 841.764, 603.403 844.532 C 596.962 850.891, 594.612 857.260, 595.177 866.834 C 596.086 882.265, 606.770 892.746, 622.649 893.783 C 636.096 894.661, 646.903 888.856, 652.416 877.793 C 655.956 870.689, 656.055 859.803, 652.647 852.500 C 650.194 847.243, 644.379 841.304, 638.810 838.368 C 633.973 835.818, 618.965 835.468, 613 837.766 M 460.500 838.573 C 450.590 843.727, 447.292 855.264, 453.060 864.597 C 456.038 869.416, 460.990 871.285, 472.500 871.935 C 482.161 872.481, 482.512 872.583, 482.845 874.944 C 483.453 879.253, 480.936 880, 465.809 880 L 452 880 452 886.500 L 452 893 468.750 892.978 C 487.930 892.953, 491.646 891.953, 496.576 885.489 C 498.834 882.529, 499.493 880.496, 499.770 875.630 C 500.476 863.274, 494.728 858.446, 477.881 857.241 C 468.755 856.588, 467.479 856.270, 467.153 854.566 C 466.455 850.923, 469.596 850, 482.691 850 L 495 850 495 843.500 L 495 837 479.250 837.006 C 466.937 837.011, 462.845 837.353, 460.500 838.573 M 565.218 838.663 C 563.413 839.553, 560.938 841.680, 559.718 843.390 C 557.604 846.354, 557.486 847.590, 557.199 869.750 L 556.897 893 565.428 893 L 573.959 893 574.230 872.250 L 574.500 851.500 582.250 851.208 L 590 850.916 590 843.958 L 590 837 579.250 837.023 C 571.404 837.039, 567.614 837.482, 565.218 838.663 M 621.542 850.729 C 610.538 853.525, 608.503 871.042, 618.427 877.544 C 623.814 881.074, 632.559 879.068, 635.991 873.514 C 638.719 869.101, 638.711 860.678, 635.974 856.190 C 633.078 851.440, 627.321 849.261, 621.542 850.729 M 419 915.500 C 419 917.860, 418.696 918, 413.559 918 C 410.566 918, 407.908 918.337, 407.651 918.750 C 407.395 919.163, 410.068 919.349, 413.592 919.165 C 419.927 918.833, 420 918.796, 420 915.915 C 420 914.312, 419.775 913, 419.500 913 C 419.225 913, 419 914.125, 419 915.500 M 551.389 925.500 C 551.390 932.650, 551.550 935.444, 551.742 931.708 C 551.935 927.973, 551.934 922.123, 551.739 918.708 C 551.545 915.294, 551.387 918.350, 551.389 925.500 M 533 923.960 L 533 926.919 524.750 927.256 L 516.500 927.593 525.250 927.796 L 534 928 534 924.500 C 534 922.575, 533.775 921, 533.500 921 C 533.225 921, 533 922.332, 533 923.960 M 589.355 929.500 C 589.352 934.450, 589.521 936.601, 589.731 934.280 C 589.940 931.959, 589.943 927.909, 589.736 925.280 C 589.530 922.651, 589.358 924.550, 589.355 929.500 M 426.453 935.748 L 426.500 948.500 430.259 948.605 L 434.017 948.710 430.538 948.296 L 427.059 947.883 426.733 935.440 L 426.407 922.997 426.453 935.748" stroke="none" fill="#45c1f4" fill-rule="evenodd"/></svg>