<svg xmlns="http://www.w3.org/2000/svg" width="1024" height="1024" viewBox="0 0 1024 1024" version="1.1"><path d="M 140.500 0.670 C 132.363 1.704, 116.759 5.499, 107.747 8.636 C 54.176 27.283, 15.325 71.579, 2.748 128.352 L 0.500 138.500 0.500 512 L 0.500 885.500 2.748 895.648 C 7.711 918.052, 18.217 941.689, 30.707 958.557 C 39.288 970.144, 56.217 986.855, 67.301 994.678 C 84.399 1006.746, 106.709 1016.457, 128.352 1021.252 L 138.500 1023.500 512 1023.500 L 885.500 1023.500 895.688 1021.244 C 953.353 1008.473, 997.700 968.976, 1016.073 914.025 C 1018.221 907.598, 1020.712 897.651, 1021.608 891.920 C 1022.503 886.189, 1023.633 880.719, 1024.118 879.764 C 1025.396 877.248, 1025.278 142.710, 1024 143.500 C 1023.415 143.862, 1023 142.824, 1023 141.001 C 1023 135.646, 1018.955 118.065, 1015.306 107.561 C 996.868 54.484, 953.007 15.909, 896.159 2.772 L 886.500 0.540 515 0.414 C 310.675 0.345, 142.150 0.461, 140.500 0.670 M 144 31.106 C 114.816 34.399, 87.129 48.506, 65.470 71.117 C 47.092 90.302, 35.466 114.389, 31.500 141.500 C 29.294 156.573, 29.294 867.427, 31.500 882.500 C 35.884 912.463, 49.324 937.986, 71.903 959.227 C 89.581 975.857, 110.595 986.398, 136.626 991.695 C 145.086 993.416, 162.606 993.500, 512 993.500 C 861.394 993.500, 878.914 993.416, 887.374 991.695 C 913.405 986.398, 934.419 975.857, 952.097 959.227 C 969.269 943.073, 980.793 924.839, 987.948 902.505 C 994.442 882.231, 994.064 907.978, 993.747 507 L 993.459 142.500 991.349 133.452 C 985.614 108.862, 974.578 87.908, 958.518 71.117 C 936.456 48.051, 909.289 34.402, 878.789 31.063 C 866.933 29.765, 155.514 29.806, 144 31.106 M 498.431 88.056 C 470.841 90.734, 445.690 102.748, 427.930 121.734 C 420.081 130.124, 410.188 145.155, 404.575 157.216 C 402.198 162.322, 370.229 246.375, 333.533 344 C 296.836 441.625, 244.065 582.025, 216.264 656 C 188.463 729.975, 165.613 790.629, 165.488 790.787 C 164.882 791.547, 160.105 788.558, 159.640 787.128 C 159.348 786.233, 157.810 783.250, 156.221 780.500 C 154.632 777.750, 153.506 774.979, 153.719 774.342 C 153.932 773.705, 153.632 772.890, 153.053 772.533 C 151.607 771.639, 151.645 750.338, 153.094 749.442 C 153.696 749.070, 153.981 747.683, 153.728 746.359 C 153.475 745.035, 153.658 743.711, 154.134 743.417 C 154.610 743.123, 155 741.559, 155 739.941 C 155 738.323, 155.392 737, 155.872 737 C 156.352 737, 157.040 735.087, 157.400 732.750 C 158.214 727.477, 160.678 719.319, 162.460 716 C 163.198 714.625, 164.343 711.475, 165.006 709 C 165.668 706.525, 167.399 702.475, 168.852 700 C 170.304 697.525, 171.504 695.275, 171.518 695 C 171.532 694.725, 173.671 691.261, 176.271 687.303 C 178.872 683.345, 181 679.632, 181 679.053 C 181 678.474, 181.464 678, 182.031 678 C 182.599 678, 183.353 677.212, 183.709 676.250 C 184.064 675.288, 187.312 670.743, 190.927 666.150 C 196.999 658.436, 202.458 650, 201.376 650 C 199.692 650, 193.467 656.056, 185.443 665.500 C 180.303 671.550, 175.288 677.417, 174.299 678.538 C 173.309 679.660, 172.300 681.010, 172.056 681.538 C 171.812 682.067, 171.242 682.950, 170.791 683.500 C 167.382 687.653, 163.111 694.040, 161.929 696.750 C 161.150 698.538, 160.149 700, 159.705 700 C 159.261 700, 158.230 701.463, 157.414 703.250 C 156.597 705.038, 154.566 708.710, 152.900 711.410 C 149.566 716.814, 146.001 725.514, 146.001 728.250 C 146 729.212, 145.625 730, 145.166 730 C 144.708 730, 143.266 734.388, 141.963 739.750 C 140.659 745.113, 138.939 750.287, 138.141 751.250 C 137.186 752.402, 137.085 753, 137.845 753 C 139.575 753, 139.265 758.961, 137.500 759.638 C 135.336 760.469, 135.406 771.262, 137.586 773.072 C 138.652 773.956, 138.988 775.308, 138.611 777.194 C 138.303 778.737, 138.489 780, 139.025 780 C 139.561 780, 140.007 780.788, 140.015 781.750 C 140.038 784.371, 142.198 789.998, 144.909 794.500 C 149.225 801.666, 151.710 803.874, 165.931 813.182 C 174.551 818.824, 182.401 821.501, 193.500 822.585 C 197.350 822.961, 201.042 823.696, 201.705 824.219 C 203.661 825.763, 235.073 824.480, 252 822.166 C 272.601 819.349, 280.982 817.839, 281.604 816.832 C 281.887 816.374, 283.216 816, 284.559 816 C 285.902 816, 287 815.550, 287 815 C 287 814.450, 288.104 814, 289.454 814 C 290.804 814, 296.091 812.623, 301.204 810.940 C 306.317 809.257, 313.826 807.009, 317.892 805.945 C 321.958 804.880, 325.783 803.627, 326.392 803.160 C 327.001 802.693, 329.525 801.822, 332 801.225 C 334.475 800.628, 338.750 799.595, 341.500 798.930 C 344.250 798.264, 346.950 797.200, 347.500 796.566 C 348.517 795.392, 362.588 791, 365.330 791 C 366.157 791, 366.983 790.654, 367.167 790.232 C 367.350 789.810, 371.436 788.195, 376.246 786.644 C 381.056 785.092, 385.245 783.413, 385.555 782.912 C 385.864 782.410, 386.955 782, 387.977 782 C 388.999 782, 392.076 780.875, 394.813 779.500 C 397.551 778.125, 400.486 777, 401.336 777 C 402.186 777, 403.124 776.608, 403.420 776.130 C 403.716 775.651, 406.780 774.228, 410.229 772.967 C 413.678 771.706, 416.950 770.362, 417.500 769.980 C 418.050 769.599, 421.760 768.059, 425.743 766.558 C 429.727 765.058, 433.211 763.468, 433.485 763.025 C 433.758 762.582, 437.699 760.430, 442.241 758.242 C 458.951 750.195, 471.590 743.946, 475 742.044 C 476.925 740.970, 480.636 739.283, 483.246 738.296 C 485.857 737.308, 487.994 736.198, 487.996 735.829 C 487.998 735.461, 489.399 734.852, 491.110 734.476 C 495.521 733.507, 503.730 729.649, 509 726.067 C 511.475 724.385, 514.025 723.007, 514.667 723.004 C 515.308 723.002, 515.983 722.606, 516.167 722.125 C 516.350 721.644, 519.200 719.848, 522.500 718.134 C 531.951 713.227, 537.077 710.071, 541.554 706.402 C 546.830 702.079, 548.026 702.045, 546.983 706.250 C 546.248 709.214, 539.276 724.410, 537.004 728 C 536.482 728.825, 535.265 731.075, 534.300 733 C 532.262 737.063, 513.857 756, 511.947 756 C 511.238 756, 509.947 756.625, 509.079 757.390 C 508.210 758.154, 505.025 759.809, 502 761.067 C 498.975 762.326, 495.348 764.145, 493.939 765.111 C 492.530 766.077, 490.147 767.176, 488.642 767.554 C 483.240 768.910, 486.976 769.041, 502.081 768.027 C 519.928 766.829, 536.850 764.276, 539 762.459 C 539.825 761.761, 543.559 760.430, 547.297 759.500 C 559.379 756.495, 576.930 748.121, 587.959 740.099 C 591.815 737.294, 595.181 735, 595.440 735 C 596.562 735, 603.464 729.782, 604.727 727.979 C 605.490 726.891, 606.554 726, 607.093 726 C 607.632 726, 611.431 722.652, 615.536 718.560 L 623 711.121 623 700.619 C 623 694.697, 622.564 689.849, 622 689.500 C 621.450 689.160, 621 687.413, 621 685.617 C 621 680.078, 617.885 663.716, 616.027 659.500 C 615.058 657.300, 613.958 654.208, 613.583 652.629 C 613.208 651.050, 612.248 649.106, 611.451 648.308 C 610.653 647.510, 610 645.796, 610 644.500 C 610 643.204, 609.438 641.540, 608.750 640.803 C 608.063 640.066, 606.646 637.897, 605.601 635.982 C 601.916 629.224, 594.721 618.830, 593.369 618.311 C 592.616 618.022, 592 617.203, 592 616.490 C 592 614.989, 569.273 593, 567.722 593 C 567.151 593, 564.393 591.239, 561.592 589.086 C 556.036 584.816, 544.231 578.588, 539.488 577.425 C 537.845 577.022, 536.239 576.295, 535.919 575.811 C 535.600 575.326, 533.709 574.665, 531.718 574.342 C 528.727 573.856, 526.480 574.565, 518.799 578.412 C 504.953 585.347, 501.762 587.177, 497.285 590.750 C 495.045 592.538, 492.873 594, 492.459 594 C 492.045 594, 489.784 595.575, 487.435 597.500 C 485.085 599.425, 482.850 601, 482.466 601 C 481.374 601, 461 621.601, 461 622.705 C 461 623.247, 460.100 624.505, 459 625.500 C 457.900 626.495, 457 627.867, 457 628.548 C 457 629.229, 456.368 630.029, 455.595 630.325 C 453.938 630.961, 448.992 637.961, 445.428 644.714 C 444.039 647.346, 441.587 651.638, 439.980 654.250 C 438.373 656.863, 437.383 659.014, 437.779 659.032 C 438.176 659.049, 437.626 659.724, 436.559 660.532 C 435.491 661.339, 435.041 662.007, 435.559 662.015 C 436.076 662.024, 436.023 662.361, 435.440 662.765 C 434.856 663.169, 433.338 666.875, 432.066 671 C 430.794 675.125, 429.363 678.991, 428.887 679.590 C 427.779 680.984, 423.812 700.145, 424.490 700.824 C 424.771 701.104, 425 700.692, 425 699.907 C 425 699.123, 425.900 697.919, 427 697.232 C 428.100 696.545, 429 695.411, 429 694.711 C 429 693.289, 444.163 678.006, 445.590 677.990 C 446.090 677.985, 448.401 676.469, 450.724 674.623 C 453.047 672.776, 456.422 670.668, 458.224 669.939 C 460.026 669.210, 461.725 668.317, 462 667.954 C 464.282 664.945, 488.066 661.619, 498.836 662.803 L 505.173 663.500 498.957 668 C 495.539 670.475, 492.013 672.950, 491.121 673.500 C 490.229 674.050, 485.405 677.763, 480.401 681.750 C 475.397 685.738, 470.548 689, 469.626 689 C 468.705 689, 467.520 690.133, 466.993 691.518 C 466.467 692.903, 464.997 694.431, 463.727 694.914 C 462.457 695.397, 460.819 696.514, 460.086 697.396 C 459.354 698.278, 458.347 699, 457.848 699 C 457.349 699, 454.630 700.827, 451.805 703.060 C 448.980 705.293, 445.281 707.835, 443.584 708.709 C 441.888 709.583, 439.912 711.131, 439.193 712.149 C 438.475 713.167, 437.415 714, 436.838 714 C 436.262 714, 433.767 715.365, 431.294 717.034 C 427.313 719.721, 424.805 721.162, 414.116 726.905 C 412.677 727.678, 411.350 728.691, 411.167 729.155 C 410.983 729.620, 409.971 730, 408.917 730 C 407.863 730, 407 730.675, 407 731.500 C 407 732.325, 406.366 733, 405.591 733 C 403.912 733, 384.260 742.966, 380.104 745.926 C 378.502 747.067, 376.950 748, 376.656 748 C 376.361 748, 371.931 749.967, 366.810 752.370 C 351.698 759.464, 348.639 760.791, 344.208 762.173 C 341.894 762.896, 340 763.827, 340 764.243 C 340 764.660, 339.127 765, 338.059 765 C 336.991 765, 335.860 765.417, 335.545 765.927 C 335.230 766.437, 333.291 767.392, 331.236 768.050 C 329.181 768.708, 324.800 770.531, 321.500 772.101 C 318.200 773.671, 312.913 775.672, 309.750 776.549 C 306.587 777.425, 304 778.560, 304 779.071 C 304 779.582, 303.438 780.002, 302.750 780.005 C 302.063 780.008, 298.575 781.508, 295 783.339 C 291.425 785.170, 285.800 787.466, 282.500 788.441 C 279.200 789.415, 274.842 790.825, 272.816 791.572 L 269.131 792.931 270.950 787.716 C 271.950 784.847, 284.920 749.425, 299.773 709 C 314.625 668.575, 332.725 618.625, 339.994 598 C 360.217 540.617, 486.583 197.307, 489.986 190.500 C 495.243 179.987, 500.598 175.653, 509.846 174.426 C 521.588 172.868, 529.426 178.263, 536.853 193.014 C 540.666 200.588, 645.185 488.985, 644.432 489.854 C 644.263 490.049, 642.738 489.517, 641.043 488.671 C 635.431 485.872, 626.665 484.580, 613 484.540 C 598.554 484.497, 592.298 485.589, 583.966 489.609 C 581.240 490.924, 578.400 492, 577.654 492 C 573.516 492, 553 511.751, 553 515.736 C 553 516.431, 552.589 517, 552.087 517 C 551.258 517, 547.170 526.869, 545.461 533 C 545.077 534.375, 544.182 536.175, 543.471 537 C 542.760 537.825, 541.874 540.556, 541.502 543.070 L 540.827 547.639 546.414 548.979 C 549.486 549.716, 552 550.698, 552 551.160 C 552 551.622, 553.035 552, 554.300 552 C 555.565 552, 557.028 552.418, 557.550 552.928 C 558.073 553.439, 560.792 554.755, 563.592 555.852 C 566.393 556.949, 571.717 560.019, 575.424 562.673 C 579.131 565.328, 582.933 567.950, 583.874 568.500 C 588.719 571.332, 601.371 582.860, 607.939 590.429 C 612.031 595.143, 615.743 599, 616.189 599 C 616.635 599, 617 599.896, 617 600.992 C 617 602.087, 617.900 603.545, 619 604.232 C 620.100 604.919, 621 605.859, 621 606.321 C 621 606.783, 622.499 609.487, 624.330 612.331 C 630.725 622.258, 635.942 631.536, 637.079 635.005 C 637.709 636.927, 639.039 640.300, 640.036 642.500 C 641.033 644.700, 642.374 648.525, 643.018 651 C 643.661 653.475, 644.543 656.197, 644.977 657.050 C 645.412 657.902, 646.344 661.277, 647.049 664.550 C 647.754 667.822, 648.741 671.039, 649.244 671.697 C 649.746 672.355, 650.055 673.930, 649.930 675.197 C 649.805 676.464, 650.016 678.217, 650.399 679.094 C 651.378 681.338, 652.660 705.933, 651.842 706.792 C 651.472 707.181, 651.018 710.303, 650.834 713.728 L 650.500 719.956 655 720.529 C 657.475 720.845, 660.281 721.529, 661.236 722.051 C 663.455 723.263, 685.462 723.296, 687.764 722.091 C 688.719 721.591, 693.538 720.245, 698.474 719.100 C 704.464 717.710, 708.840 716.018, 711.637 714.009 C 713.942 712.354, 716.290 711, 716.857 711 C 717.423 711, 718.577 710.015, 719.420 708.810 C 720.264 707.606, 721.126 706.819, 721.336 707.060 C 721.546 707.302, 731.127 733.600, 742.627 765.500 L 763.537 823.500 817.768 823.759 C 847.596 823.901, 872 823.831, 872 823.604 C 872 823.377, 853.325 773.643, 830.500 713.084 C 807.675 652.525, 789 602.546, 789 602.020 C 789 600.927, 798.016 594.080, 803.542 590.976 C 807.248 588.895, 812.033 585.362, 819.428 579.250 C 821.591 577.463, 823.826 576, 824.395 576 C 825.569 576, 828.828 573.040, 836.136 565.335 C 836.886 564.544, 838.980 562.458, 840.789 560.699 C 845.904 555.724, 848 553.355, 848 552.547 C 848 552.139, 851.183 547.770, 855.073 542.839 C 861.990 534.070, 864.549 530.115, 869.203 521 C 870.466 518.525, 872.063 515.905, 872.750 515.179 C 873.438 514.452, 874 513.021, 874 512 C 874 510.979, 874.654 509.489, 875.452 508.690 C 876.251 507.892, 876.626 506.960, 876.286 506.619 C 875.945 506.279, 876.192 506, 876.833 506 C 877.475 506, 878 505.137, 878 504.082 C 878 503.027, 879.072 499.990, 880.382 497.332 C 881.692 494.674, 883.365 490.025, 884.099 487 C 884.834 483.975, 885.705 481.275, 886.035 481 C 886.790 480.371, 890 462.314, 890 458.692 C 890 457.212, 890.450 456, 891 456 C 891.550 456, 892 453.544, 892 450.542 L 892 445.085 885.142 443.042 C 881.370 441.919, 877.635 441, 876.842 441 C 876.049 441, 874.973 440.590, 874.450 440.089 C 873.399 439.081, 855.073 436, 850.131 436 C 848.409 436, 847 435.550, 847 435 C 847 434.364, 839.167 434, 825.500 434 C 813.675 434, 804 434.385, 804 434.856 C 804 435.327, 800.513 436.019, 796.250 436.393 C 791.987 436.767, 785.800 437.706, 782.500 438.479 C 771.450 441.070, 757.525 445.147, 755 446.531 C 751.620 448.385, 749.315 449.450, 744 451.613 C 741.525 452.621, 739.270 453.759, 738.990 454.143 C 738.709 454.527, 737.359 455.115, 735.990 455.450 C 733.518 456.054, 733.101 454.999, 678.658 310.279 C 648.495 230.101, 621.441 159.504, 618.538 153.398 C 608.304 131.869, 596.248 117.328, 579.689 106.536 C 563.952 96.281, 546.840 90.319, 526.697 88.072 C 516.085 86.889, 510.484 86.886, 498.431 88.056 M 0.495 512 C 0.495 714.675, 0.610 797.588, 0.750 696.250 C 0.890 594.913, 0.890 429.088, 0.750 327.750 C 0.610 226.413, 0.495 309.325, 0.495 512 M 397.328 816.938 C 395.033 817.980, 392.441 819.923, 391.568 821.256 C 390.121 823.465, 365.044 890.507, 365.013 892.250 C 365.006 892.663, 369.238 893, 374.417 893 L 383.833 893 386.250 885.750 L 388.667 878.500 405 878.500 L 421.333 878.500 423.750 885.750 L 426.167 893 436.075 893 L 445.984 893 444.525 889.250 C 443.723 887.188, 437.875 871.352, 431.529 854.059 C 424.779 835.667, 419.059 821.607, 417.745 820.181 C 412.882 814.899, 404.685 813.598, 397.328 816.938 M 514 830 L 514 837 509.500 837 L 505 837 505 844 L 505 851 509.393 851 L 513.786 851 514.145 866.250 C 514.452 879.284, 514.794 881.993, 516.502 884.895 C 520.344 891.424, 522.836 892.462, 535.570 892.836 L 547 893.172 547 886.086 L 547 879 540.571 879 C 531.271 879, 531 878.559, 531 863.429 L 531 851 539 851 L 547 851 547 844.042 L 547 837.084 539.250 836.792 L 531.500 836.500 531.204 829.750 L 530.909 823 522.454 823 L 514 823 514 830 M 399.100 846.201 C 396.295 854.616, 394 861.839, 394 862.251 C 394 862.663, 398.950 863, 405 863 C 413.161 863, 415.987 862.677, 415.948 861.750 C 415.824 858.780, 406.367 831.622, 405.336 831.279 C 404.650 831.050, 402.178 836.966, 399.100 846.201 M 613 837.766 C 610.525 838.720, 606.206 841.764, 603.403 844.532 C 596.962 850.891, 594.612 857.260, 595.177 866.834 C 596.086 882.265, 606.770 892.746, 622.649 893.783 C 636.096 894.661, 646.903 888.856, 652.416 877.793 C 655.956 870.689, 656.055 859.803, 652.647 852.500 C 650.194 847.243, 644.379 841.304, 638.810 838.368 C 633.973 835.818, 618.965 835.468, 613 837.766 M 460.500 838.573 C 450.590 843.727, 447.292 855.264, 453.060 864.597 C 456.038 869.416, 460.990 871.285, 472.500 871.935 C 482.161 872.481, 482.512 872.583, 482.845 874.944 C 483.453 879.253, 480.936 880, 465.809 880 L 452 880 452 886.500 L 452 893 468.750 892.978 C 487.930 892.953, 491.646 891.953, 496.576 885.489 C 498.834 882.529, 499.493 880.496, 499.770 875.630 C 500.477 863.258, 494.560 858.296, 477.772 857.181 C 468.727 856.580, 467.479 856.273, 467.153 854.566 C 466.455 850.923, 469.596 850, 482.691 850 L 495 850 495 843.500 L 495 837 479.250 837.006 C 466.937 837.011, 462.845 837.353, 460.500 838.573 M 565.218 838.663 C 563.413 839.553, 560.938 841.680, 559.718 843.390 C 557.604 846.354, 557.486 847.590, 557.199 869.750 L 556.897 893 565.428 893 L 573.959 893 574.230 872.250 L 574.500 851.500 582.250 851.208 L 590 850.916 590 843.958 L 590 837 579.250 837.023 C 571.404 837.039, 567.614 837.482, 565.218 838.663 M 621.542 850.729 C 610.538 853.525, 608.503 871.042, 618.427 877.544 C 623.814 881.074, 632.559 879.068, 635.991 873.514 C 638.719 869.101, 638.711 860.678, 635.974 856.190 C 633.078 851.440, 627.321 849.261, 621.542 850.729 M 552.200 902.200 C 549.577 904.823, 551.465 910, 555.045 910 C 555.950 910, 557.506 909.098, 558.504 907.996 C 562.186 903.927, 556.084 898.316, 552.200 902.200 M 433.108 913.660 C 427.428 916.553, 425.885 921.606, 426.219 936.214 L 426.500 948.500 430.250 948.810 L 434 949.121 434 942.641 L 434 936.161 437.754 937.635 C 440.922 938.880, 442.130 938.906, 445.504 937.805 C 448.736 936.749, 449.942 935.610, 451.812 931.841 C 454.734 925.954, 454.029 921.093, 449.545 916.200 C 446.921 913.337, 445.526 912.673, 441.438 912.337 C 438.062 912.060, 435.427 912.479, 433.108 913.660 M 464.270 913.483 C 456.409 916.900, 454.508 928.969, 460.834 935.296 C 464.623 939.085, 470.510 939.659, 473.920 936.572 C 475.764 934.904, 476 934.878, 476 936.345 C 476 937.609, 476.945 938, 480 938 L 484 938 483.996 929.750 C 483.993 923.332, 483.559 920.789, 482.040 918.299 C 478.472 912.446, 471.192 910.473, 464.270 913.483 M 514.912 914.280 C 510.317 917.377, 508.836 920.545, 509.312 926.260 C 509.969 934.150, 515.267 938, 525.468 938 C 530.895 938, 531 937.945, 531 935.124 C 531 932.356, 530.790 932.230, 525.449 931.787 C 522.129 931.512, 519.230 930.659, 518.235 929.664 C 516.684 928.112, 517.159 928, 525.286 928 L 534 928 534 924.901 C 534 914.623, 523.266 908.650, 514.912 914.280 M 570.314 913.950 C 565.724 916.749, 565 918.791, 565 928.934 L 565 938 568.500 938 L 572 938 572 930.155 C 572 921.677, 573.391 919, 577.794 919 C 580.921 919, 582 921.933, 582 930.434 L 582 938 586 938 L 590 938 590 929.901 C 590 924.597, 589.456 920.655, 588.423 918.478 C 585.545 912.414, 576.530 910.160, 570.314 913.950 M 402.174 915.314 C 399.415 918.252, 399.253 924.014, 401.863 926.376 C 402.887 927.303, 406.037 928.336, 408.863 928.670 C 412.231 929.069, 414 929.747, 414 930.639 C 414 931.647, 412.315 932, 407.500 932 L 401 932 401 935 L 401 938 409.045 938 C 416.254 938, 417.346 937.745, 419.545 935.545 C 422.687 932.404, 422.865 927.093, 419.917 924.425 C 418.730 923.350, 415.708 922.316, 412.888 922.020 C 405.820 921.277, 406.347 919.555, 413.750 919.202 C 419.938 918.908, 420 918.875, 420 915.952 L 420 913 412.174 913 C 405.287 913, 404.088 913.278, 402.174 915.314 M 494.763 914.565 C 491.213 916.491, 489 920.869, 489 925.965 C 489 929.172, 489.699 930.792, 492.312 933.643 C 495.099 936.685, 496.446 937.336, 500.812 937.756 L 506 938.254 506 935.239 C 506 932.600, 505.574 932.143, 502.600 931.585 C 498.518 930.819, 496.750 928.922, 496.750 925.307 C 496.750 922.138, 500.163 919, 503.611 919 C 505.599 919, 506 918.496, 506 916 C 506 913.131, 505.814 913.002, 501.750 913.040 C 499.413 913.062, 496.268 913.748, 494.763 914.565 M 551 925.500 L 551 938 555 938 L 559 938 559 925.500 L 559 913 555 913 L 551 913 551 925.500 M 600.190 915.026 C 594.270 918.635, 592.697 926.555, 596.690 932.649 C 598.589 935.547, 603.957 938, 608.401 938 C 611.702 938, 612 937.761, 612 935.111 C 612 932.606, 611.539 932.136, 608.529 931.571 C 604.925 930.895, 602 927.852, 602 924.777 C 602 922.027, 605.667 919, 609 919 C 611.667 919, 612 918.667, 612 916 C 612 913.137, 611.806 913, 607.750 913.004 C 605.253 913.006, 602.135 913.840, 600.190 915.026 M 518.655 919.829 C 516.180 922.564, 516.571 923, 521.500 923 C 526.391 923, 527.698 920.979, 524.066 919.035 C 521.388 917.602, 520.560 917.724, 518.655 919.829 M 435.473 921.401 C 433.421 924.533, 434.302 929.556, 437.174 931.093 C 442.341 933.858, 447.511 927.939, 444.833 922.325 C 442.936 918.347, 437.806 917.840, 435.473 921.401 M 466.655 920.829 C 464.458 923.256, 464.550 928.283, 466.829 930.345 C 470.758 933.901, 476 931.033, 476 925.326 C 476 919.857, 470.103 917.019, 466.655 920.829 M 616.571 930.571 C 614.290 932.853, 614.644 935.720, 617.433 937.548 C 621.921 940.489, 626.453 935.866, 623.500 931.359 C 621.716 928.637, 618.834 928.309, 616.571 930.571" stroke="none" fill="#43bff5" fill-rule="evenodd"/><path d="M 144 31.106 C 114.816 34.399, 87.129 48.506, 65.470 71.117 C 47.092 90.302, 35.466 114.389, 31.500 141.500 C 29.294 156.573, 29.294 867.427, 31.500 882.500 C 35.884 912.463, 49.324 937.986, 71.903 959.227 C 89.581 975.857, 110.595 986.398, 136.626 991.695 C 145.086 993.416, 162.606 993.500, 512 993.500 C 861.394 993.500, 878.914 993.416, 887.374 991.695 C 913.405 986.398, 934.419 975.857, 952.097 959.227 C 969.269 943.073, 980.793 924.839, 987.948 902.505 C 994.442 882.231, 994.064 907.978, 993.747 507 L 993.459 142.500 991.349 133.452 C 985.614 108.862, 974.578 87.908, 958.518 71.117 C 936.456 48.051, 909.289 34.402, 878.789 31.063 C 866.933 29.765, 155.514 29.806, 144 31.106 M 498.431 88.056 C 470.841 90.734, 445.690 102.748, 427.930 121.734 C 420.081 130.124, 410.188 145.155, 404.575 157.216 C 402.198 162.322, 370.229 246.375, 333.533 344 C 296.836 441.625, 244.065 582.025, 216.264 656 C 188.463 729.975, 165.613 790.629, 165.488 790.787 C 164.882 791.547, 160.105 788.558, 159.640 787.128 C 159.348 786.233, 157.810 783.250, 156.221 780.500 C 154.632 777.750, 153.506 774.979, 153.719 774.342 C 153.932 773.705, 153.632 772.890, 153.053 772.533 C 151.607 771.639, 151.645 750.338, 153.094 749.442 C 153.696 749.070, 153.981 747.683, 153.728 746.359 C 153.475 745.035, 153.658 743.711, 154.134 743.417 C 154.610 743.123, 155 741.559, 155 739.941 C 155 738.323, 155.392 737, 155.872 737 C 156.352 737, 157.040 735.087, 157.400 732.750 C 158.214 727.477, 160.678 719.319, 162.460 716 C 163.198 714.625, 164.343 711.475, 165.006 709 C 165.668 706.525, 167.399 702.475, 168.852 700 C 170.304 697.525, 171.504 695.275, 171.518 695 C 171.532 694.725, 173.671 691.261, 176.271 687.303 C 178.872 683.345, 181 679.632, 181 679.053 C 181 678.474, 181.464 678, 182.031 678 C 182.599 678, 183.353 677.212, 183.709 676.250 C 184.064 675.288, 187.312 670.743, 190.927 666.150 C 196.999 658.436, 202.458 650, 201.376 650 C 199.692 650, 193.467 656.056, 185.443 665.500 C 180.303 671.550, 175.288 677.417, 174.299 678.538 C 173.309 679.660, 172.300 681.010, 172.056 681.538 C 171.812 682.067, 171.242 682.950, 170.791 683.500 C 167.382 687.653, 163.111 694.040, 161.929 696.750 C 161.150 698.538, 160.149 700, 159.705 700 C 159.261 700, 158.230 701.463, 157.414 703.250 C 156.597 705.038, 154.566 708.710, 152.900 711.410 C 149.566 716.814, 146.001 725.514, 146.001 728.250 C 146 729.212, 145.625 730, 145.166 730 C 144.708 730, 143.266 734.388, 141.963 739.750 C 140.659 745.113, 138.939 750.287, 138.141 751.250 C 137.186 752.402, 137.085 753, 137.845 753 C 139.575 753, 139.265 758.961, 137.500 759.638 C 135.336 760.469, 135.406 771.262, 137.586 773.072 C 138.652 773.956, 138.988 775.308, 138.611 777.194 C 138.303 778.737, 138.489 780, 139.025 780 C 139.561 780, 140.007 780.788, 140.015 781.750 C 140.038 784.371, 142.198 789.998, 144.909 794.500 C 149.225 801.666, 151.710 803.874, 165.931 813.182 C 174.551 818.824, 182.401 821.501, 193.500 822.585 C 197.350 822.961, 201.042 823.696, 201.705 824.219 C 203.661 825.763, 235.073 824.480, 252 822.166 C 272.601 819.349, 280.982 817.839, 281.604 816.832 C 281.887 816.374, 283.216 816, 284.559 816 C 285.902 816, 287 815.550, 287 815 C 287 814.450, 288.104 814, 289.454 814 C 290.804 814, 296.091 812.623, 301.204 810.940 C 306.317 809.257, 313.826 807.009, 317.892 805.945 C 321.958 804.880, 325.783 803.627, 326.392 803.160 C 327.001 802.693, 329.525 801.822, 332 801.225 C 334.475 800.628, 338.750 799.595, 341.500 798.930 C 344.250 798.264, 346.950 797.200, 347.500 796.566 C 348.517 795.392, 362.588 791, 365.330 791 C 366.157 791, 366.983 790.654, 367.167 790.232 C 367.350 789.810, 371.436 788.195, 376.246 786.644 C 381.056 785.092, 385.245 783.413, 385.555 782.912 C 385.864 782.410, 386.955 782, 387.977 782 C 388.999 782, 392.076 780.875, 394.813 779.500 C 397.551 778.125, 400.486 777, 401.336 777 C 402.186 777, 403.124 776.608, 403.420 776.130 C 403.716 775.651, 406.780 774.228, 410.229 772.967 C 413.678 771.706, 416.950 770.362, 417.500 769.980 C 418.050 769.599, 421.760 768.059, 425.743 766.558 C 429.727 765.058, 433.211 763.468, 433.485 763.025 C 433.758 762.582, 437.699 760.430, 442.241 758.242 C 458.951 750.195, 471.590 743.946, 475 742.044 C 476.925 740.970, 480.636 739.283, 483.246 738.296 C 485.857 737.308, 487.994 736.198, 487.996 735.829 C 487.998 735.461, 489.399 734.852, 491.110 734.476 C 495.521 733.507, 503.730 729.649, 509 726.067 C 511.475 724.385, 514.025 723.007, 514.667 723.004 C 515.308 723.002, 515.983 722.606, 516.167 722.125 C 516.350 721.644, 519.200 719.848, 522.500 718.134 C 531.951 713.227, 537.077 710.071, 541.554 706.402 C 546.830 702.079, 548.026 702.045, 546.983 706.250 C 546.248 709.214, 539.276 724.410, 537.004 728 C 536.482 728.825, 535.265 731.075, 534.300 733 C 532.262 737.063, 513.857 756, 511.947 756 C 511.238 756, 509.947 756.625, 509.079 757.390 C 508.210 758.154, 505.025 759.809, 502 761.067 C 498.975 762.326, 495.348 764.145, 493.939 765.111 C 492.530 766.077, 490.147 767.176, 488.642 767.554 C 483.240 768.910, 486.976 769.041, 502.081 768.027 C 519.928 766.829, 536.850 764.276, 539 762.459 C 539.825 761.761, 543.559 760.430, 547.297 759.500 C 559.379 756.495, 576.930 748.121, 587.959 740.099 C 591.815 737.294, 595.181 735, 595.440 735 C 596.562 735, 603.464 729.782, 604.727 727.979 C 605.490 726.891, 606.554 726, 607.093 726 C 607.632 726, 611.431 722.652, 615.536 718.560 L 623 711.121 623 700.619 C 623 694.697, 622.564 689.849, 622 689.500 C 621.450 689.160, 621 687.413, 621 685.617 C 621 680.078, 617.885 663.716, 616.027 659.500 C 615.058 657.300, 613.958 654.208, 613.583 652.629 C 613.208 651.050, 612.248 649.106, 611.451 648.308 C 610.653 647.510, 610 645.796, 610 644.500 C 610 643.204, 609.438 641.540, 608.750 640.803 C 608.063 640.066, 606.646 637.897, 605.601 635.982 C 601.916 629.224, 594.721 618.830, 593.369 618.311 C 592.616 618.022, 592 617.203, 592 616.490 C 592 614.989, 569.273 593, 567.722 593 C 567.151 593, 564.393 591.239, 561.592 589.086 C 556.036 584.816, 544.231 578.588, 539.488 577.425 C 537.845 577.022, 536.239 576.295, 535.919 575.811 C 535.600 575.326, 533.709 574.665, 531.718 574.342 C 528.727 573.856, 526.480 574.565, 518.799 578.412 C 504.953 585.347, 501.762 587.177, 497.285 590.750 C 495.045 592.538, 492.873 594, 492.459 594 C 492.045 594, 489.784 595.575, 487.435 597.500 C 485.085 599.425, 482.850 601, 482.466 601 C 481.374 601, 461 621.601, 461 622.705 C 461 623.247, 460.100 624.505, 459 625.500 C 457.900 626.495, 457 627.867, 457 628.548 C 457 629.229, 456.368 630.029, 455.595 630.325 C 453.938 630.961, 448.992 637.961, 445.428 644.714 C 444.039 647.346, 441.587 651.638, 439.980 654.250 C 438.373 656.863, 437.383 659.014, 437.779 659.032 C 438.176 659.049, 437.626 659.724, 436.559 660.532 C 435.491 661.339, 435.041 662.007, 435.559 662.015 C 436.076 662.024, 436.023 662.361, 435.440 662.765 C 434.856 663.169, 433.338 666.875, 432.066 671 C 430.794 675.125, 429.363 678.991, 428.887 679.590 C 427.779 680.984, 423.812 700.145, 424.490 700.824 C 424.771 701.104, 425 700.692, 425 699.907 C 425 699.123, 425.900 697.919, 427 697.232 C 428.100 696.545, 429 695.411, 429 694.711 C 429 693.289, 444.163 678.006, 445.590 677.990 C 446.090 677.985, 448.401 676.469, 450.724 674.623 C 453.047 672.776, 456.422 670.668, 458.224 669.939 C 460.026 669.210, 461.725 668.317, 462 667.954 C 464.282 664.945, 488.066 661.619, 498.836 662.803 L 505.173 663.500 498.957 668 C 495.539 670.475, 492.013 672.950, 491.121 673.500 C 490.229 674.050, 485.405 677.763, 480.401 681.750 C 475.397 685.738, 470.548 689, 469.626 689 C 468.705 689, 467.520 690.133, 466.993 691.518 C 466.467 692.903, 464.997 694.431, 463.727 694.914 C 462.457 695.397, 460.819 696.514, 460.086 697.396 C 459.354 698.278, 458.347 699, 457.848 699 C 457.349 699, 454.630 700.827, 451.805 703.060 C 448.980 705.293, 445.281 707.835, 443.584 708.709 C 441.888 709.583, 439.912 711.131, 439.193 712.149 C 438.475 713.167, 437.415 714, 436.838 714 C 436.262 714, 433.767 715.365, 431.294 717.034 C 427.313 719.721, 424.805 721.162, 414.116 726.905 C 412.677 727.678, 411.350 728.691, 411.167 729.155 C 410.983 729.620, 409.971 730, 408.917 730 C 407.863 730, 407 730.675, 407 731.500 C 407 732.325, 406.366 733, 405.591 733 C 403.912 733, 384.260 742.966, 380.104 745.926 C 378.502 747.067, 376.950 748, 376.656 748 C 376.361 748, 371.931 749.967, 366.810 752.370 C 351.698 759.464, 348.639 760.791, 344.208 762.173 C 341.894 762.896, 340 763.827, 340 764.243 C 340 764.660, 339.127 765, 338.059 765 C 336.991 765, 335.860 765.417, 335.545 765.927 C 335.230 766.437, 333.291 767.392, 331.236 768.050 C 329.181 768.708, 324.800 770.531, 321.500 772.101 C 318.200 773.671, 312.913 775.672, 309.750 776.549 C 306.587 777.425, 304 778.560, 304 779.071 C 304 779.582, 303.438 780.002, 302.750 780.005 C 302.063 780.008, 298.575 781.508, 295 783.339 C 291.425 785.170, 285.800 787.466, 282.500 788.441 C 279.200 789.415, 274.842 790.825, 272.816 791.572 L 269.131 792.931 270.950 787.716 C 271.950 784.847, 284.920 749.425, 299.773 709 C 314.625 668.575, 332.725 618.625, 339.994 598 C 360.217 540.617, 486.583 197.307, 489.986 190.500 C 495.243 179.987, 500.598 175.653, 509.846 174.426 C 521.588 172.868, 529.426 178.263, 536.853 193.014 C 540.666 200.588, 645.185 488.985, 644.432 489.854 C 644.263 490.049, 642.738 489.517, 641.043 488.671 C 635.431 485.872, 626.665 484.580, 613 484.540 C 598.554 484.497, 592.298 485.589, 583.966 489.609 C 581.240 490.924, 578.400 492, 577.654 492 C 573.516 492, 553 511.751, 553 515.736 C 553 516.431, 552.589 517, 552.087 517 C 551.258 517, 547.170 526.869, 545.461 533 C 545.077 534.375, 544.182 536.175, 543.471 537 C 542.760 537.825, 541.874 540.556, 541.502 543.070 L 540.827 547.639 546.414 548.979 C 549.486 549.716, 552 550.698, 552 551.160 C 552 551.622, 553.035 552, 554.300 552 C 555.565 552, 557.028 552.418, 557.550 552.928 C 558.073 553.439, 560.792 554.755, 563.592 555.852 C 566.393 556.949, 571.717 560.019, 575.424 562.673 C 579.131 565.328, 582.933 567.950, 583.874 568.500 C 588.719 571.332, 601.371 582.860, 607.939 590.429 C 612.031 595.143, 615.743 599, 616.189 599 C 616.635 599, 617 599.896, 617 600.992 C 617 602.087, 617.900 603.545, 619 604.232 C 620.100 604.919, 621 605.859, 621 606.321 C 621 606.783, 622.499 609.487, 624.330 612.331 C 630.725 622.258, 635.942 631.536, 637.079 635.005 C 637.709 636.927, 639.039 640.300, 640.036 642.500 C 641.033 644.700, 642.374 648.525, 643.018 651 C 643.661 653.475, 644.543 656.197, 644.977 657.050 C 645.412 657.902, 646.344 661.277, 647.049 664.550 C 647.754 667.822, 648.741 671.039, 649.244 671.697 C 649.746 672.355, 650.055 673.930, 649.930 675.197 C 649.805 676.464, 650.016 678.217, 650.399 679.094 C 651.378 681.338, 652.660 705.933, 651.842 706.792 C 651.472 707.181, 651.018 710.303, 650.834 713.728 L 650.500 719.956 655 720.529 C 657.475 720.845, 660.281 721.529, 661.236 722.051 C 663.455 723.263, 685.462 723.296, 687.764 722.091 C 688.719 721.591, 693.538 720.245, 698.474 719.100 C 704.464 717.710, 708.840 716.018, 711.637 714.009 C 713.942 712.354, 716.290 711, 716.857 711 C 717.423 711, 718.577 710.015, 719.420 708.810 C 720.264 707.606, 721.126 706.819, 721.336 707.060 C 721.546 707.302, 731.127 733.600, 742.627 765.500 L 763.537 823.500 817.768 823.759 C 847.596 823.901, 872 823.831, 872 823.604 C 872 823.377, 853.325 773.643, 830.500 713.084 C 807.675 652.525, 789 602.546, 789 602.020 C 789 600.927, 798.016 594.080, 803.542 590.976 C 807.248 588.895, 812.033 585.362, 819.428 579.250 C 821.591 577.463, 823.826 576, 824.395 576 C 825.569 576, 828.828 573.040, 836.136 565.335 C 836.886 564.544, 838.980 562.458, 840.789 560.699 C 845.904 555.724, 848 553.355, 848 552.547 C 848 552.139, 851.183 547.770, 855.073 542.839 C 861.990 534.070, 864.549 530.115, 869.203 521 C 870.466 518.525, 872.063 515.905, 872.750 515.179 C 873.438 514.452, 874 513.021, 874 512 C 874 510.979, 874.654 509.489, 875.452 508.690 C 876.251 507.892, 876.626 506.960, 876.286 506.619 C 875.945 506.279, 876.192 506, 876.833 506 C 877.475 506, 878 505.137, 878 504.082 C 878 503.027, 879.072 499.990, 880.382 497.332 C 881.692 494.674, 883.365 490.025, 884.099 487 C 884.834 483.975, 885.705 481.275, 886.035 481 C 886.790 480.371, 890 462.314, 890 458.692 C 890 457.212, 890.450 456, 891 456 C 891.550 456, 892 453.544, 892 450.542 L 892 445.085 885.142 443.042 C 881.370 441.919, 877.635 441, 876.842 441 C 876.049 441, 874.973 440.590, 874.450 440.089 C 873.399 439.081, 855.073 436, 850.131 436 C 848.409 436, 847 435.550, 847 435 C 847 434.364, 839.167 434, 825.500 434 C 813.675 434, 804 434.385, 804 434.856 C 804 435.327, 800.513 436.019, 796.250 436.393 C 791.987 436.767, 785.800 437.706, 782.500 438.479 C 771.450 441.070, 757.525 445.147, 755 446.531 C 751.620 448.385, 749.315 449.450, 744 451.613 C 741.525 452.621, 739.270 453.759, 738.990 454.143 C 738.709 454.527, 737.359 455.115, 735.990 455.450 C 733.518 456.054, 733.101 454.999, 678.658 310.279 C 648.495 230.101, 621.441 159.504, 618.538 153.398 C 608.304 131.869, 596.248 117.328, 579.689 106.536 C 563.952 96.281, 546.840 90.319, 526.697 88.072 C 516.085 86.889, 510.484 86.886, 498.431 88.056 M 397.328 816.938 C 395.033 817.980, 392.441 819.923, 391.568 821.256 C 390.121 823.465, 365.044 890.507, 365.013 892.250 C 365.006 892.663, 369.238 893, 374.417 893 L 383.833 893 386.250 885.750 L 388.667 878.500 405 878.500 L 421.333 878.500 423.750 885.750 L 426.167 893 436.075 893 L 445.984 893 444.525 889.250 C 443.723 887.188, 437.875 871.352, 431.529 854.059 C 424.779 835.667, 419.059 821.607, 417.745 820.181 C 412.882 814.899, 404.685 813.598, 397.328 816.938 M 514 830 L 514 837 509.500 837 L 505 837 505 844 L 505 851 509.393 851 L 513.786 851 514.145 866.250 C 514.452 879.284, 514.794 881.993, 516.502 884.895 C 520.344 891.424, 522.836 892.462, 535.570 892.836 L 547 893.172 547 886.086 L 547 879 540.571 879 C 531.271 879, 531 878.559, 531 863.429 L 531 851 539 851 L 547 851 547 844.042 L 547 837.084 539.250 836.792 L 531.500 836.500 531.204 829.750 L 530.909 823 522.454 823 L 514 823 514 830 M 399.100 846.201 C 396.295 854.616, 394 861.839, 394 862.251 C 394 862.663, 398.950 863, 405 863 C 413.161 863, 415.987 862.677, 415.948 861.750 C 415.824 858.780, 406.367 831.622, 405.336 831.279 C 404.650 831.050, 402.178 836.966, 399.100 846.201 M 613 837.766 C 610.525 838.720, 606.206 841.764, 603.403 844.532 C 596.962 850.891, 594.612 857.260, 595.177 866.834 C 596.086 882.265, 606.770 892.746, 622.649 893.783 C 636.096 894.661, 646.903 888.856, 652.416 877.793 C 655.956 870.689, 656.055 859.803, 652.647 852.500 C 650.194 847.243, 644.379 841.304, 638.810 838.368 C 633.973 835.818, 618.965 835.468, 613 837.766 M 460.500 838.573 C 450.590 843.727, 447.292 855.264, 453.060 864.597 C 456.038 869.416, 460.990 871.285, 472.500 871.935 C 482.161 872.481, 482.512 872.583, 482.845 874.944 C 483.453 879.253, 480.936 880, 465.809 880 L 452 880 452 886.500 L 452 893 468.750 892.978 C 487.930 892.953, 491.646 891.953, 496.576 885.489 C 498.834 882.529, 499.493 880.496, 499.770 875.630 C 500.477 863.258, 494.560 858.296, 477.772 857.181 C 468.727 856.580, 467.479 856.273, 467.153 854.566 C 466.455 850.923, 469.596 850, 482.691 850 L 495 850 495 843.500 L 495 837 479.250 837.006 C 466.937 837.011, 462.845 837.353, 460.500 838.573 M 565.218 838.663 C 563.413 839.553, 560.938 841.680, 559.718 843.390 C 557.604 846.354, 557.486 847.590, 557.199 869.750 L 556.897 893 565.428 893 L 573.959 893 574.230 872.250 L 574.500 851.500 582.250 851.208 L 590 850.916 590 843.958 L 590 837 579.250 837.023 C 571.404 837.039, 567.614 837.482, 565.218 838.663 M 621.542 850.729 C 610.538 853.525, 608.503 871.042, 618.427 877.544 C 623.814 881.074, 632.559 879.068, 635.991 873.514 C 638.719 869.101, 638.711 860.678, 635.974 856.190 C 633.078 851.440, 627.321 849.261, 621.542 850.729 M 552.200 902.200 C 549.577 904.823, 551.465 910, 555.045 910 C 555.950 910, 557.506 909.098, 558.504 907.996 C 562.186 903.927, 556.084 898.316, 552.200 902.200 M 433.108 913.660 C 427.428 916.553, 425.885 921.606, 426.219 936.214 L 426.500 948.500 430.250 948.810 L 434 949.121 434 942.641 L 434 936.161 437.754 937.635 C 440.922 938.880, 442.130 938.906, 445.504 937.805 C 448.736 936.749, 449.942 935.610, 451.812 931.841 C 454.734 925.954, 454.029 921.093, 449.545 916.200 C 446.921 913.337, 445.526 912.673, 441.438 912.337 C 438.062 912.060, 435.427 912.479, 433.108 913.660 M 464.270 913.483 C 456.409 916.900, 454.508 928.969, 460.834 935.296 C 464.623 939.085, 470.510 939.659, 473.920 936.572 C 475.764 934.904, 476 934.878, 476 936.345 C 476 937.609, 476.945 938, 480 938 L 484 938 483.996 929.750 C 483.993 923.332, 483.559 920.789, 482.040 918.299 C 478.472 912.446, 471.192 910.473, 464.270 913.483 M 514.912 914.280 C 510.317 917.377, 508.836 920.545, 509.312 926.260 C 509.969 934.150, 515.267 938, 525.468 938 C 530.895 938, 531 937.945, 531 935.124 C 531 932.356, 530.790 932.230, 525.449 931.787 C 522.129 931.512, 519.230 930.659, 518.235 929.664 C 516.684 928.112, 517.159 928, 525.286 928 L 534 928 534 924.901 C 534 914.623, 523.266 908.650, 514.912 914.280 M 570.314 913.950 C 565.724 916.749, 565 918.791, 565 928.934 L 565 938 568.500 938 L 572 938 572 930.155 C 572 921.677, 573.391 919, 577.794 919 C 580.921 919, 582 921.933, 582 930.434 L 582 938 586 938 L 590 938 590 929.901 C 590 924.597, 589.456 920.655, 588.423 918.478 C 585.545 912.414, 576.530 910.160, 570.314 913.950 M 402.174 915.314 C 399.415 918.252, 399.253 924.014, 401.863 926.376 C 402.887 927.303, 406.037 928.336, 408.863 928.670 C 412.231 929.069, 414 929.747, 414 930.639 C 414 931.647, 412.315 932, 407.500 932 L 401 932 401 935 L 401 938 409.045 938 C 416.254 938, 417.346 937.745, 419.545 935.545 C 422.687 932.404, 422.865 927.093, 419.917 924.425 C 418.730 923.350, 415.708 922.316, 412.888 922.020 C 405.820 921.277, 406.347 919.555, 413.750 919.202 C 419.938 918.908, 420 918.875, 420 915.952 L 420 913 412.174 913 C 405.287 913, 404.088 913.278, 402.174 915.314 M 494.763 914.565 C 491.213 916.491, 489 920.869, 489 925.965 C 489 929.172, 489.699 930.792, 492.312 933.643 C 495.099 936.685, 496.446 937.336, 500.812 937.756 L 506 938.254 506 935.239 C 506 932.600, 505.574 932.143, 502.600 931.585 C 498.518 930.819, 496.750 928.922, 496.750 925.307 C 496.750 922.138, 500.163 919, 503.611 919 C 505.599 919, 506 918.496, 506 916 C 506 913.131, 505.814 913.002, 501.750 913.040 C 499.413 913.062, 496.268 913.748, 494.763 914.565 M 551 925.500 L 551 938 555 938 L 559 938 559 925.500 L 559 913 555 913 L 551 913 551 925.500 M 600.190 915.026 C 594.270 918.635, 592.697 926.555, 596.690 932.649 C 598.589 935.547, 603.957 938, 608.401 938 C 611.702 938, 612 937.761, 612 935.111 C 612 932.606, 611.539 932.136, 608.529 931.571 C 604.925 930.895, 602 927.852, 602 924.777 C 602 922.027, 605.667 919, 609 919 C 611.667 919, 612 918.667, 612 916 C 612 913.137, 611.806 913, 607.750 913.004 C 605.253 913.006, 602.135 913.840, 600.190 915.026 M 518.655 919.829 C 516.180 922.564, 516.571 923, 521.500 923 C 526.391 923, 527.698 920.979, 524.066 919.035 C 521.388 917.602, 520.560 917.724, 518.655 919.829 M 435.473 921.401 C 433.421 924.533, 434.302 929.556, 437.174 931.093 C 442.341 933.858, 447.511 927.939, 444.833 922.325 C 442.936 918.347, 437.806 917.840, 435.473 921.401 M 466.655 920.829 C 464.458 923.256, 464.550 928.283, 466.829 930.345 C 470.758 933.901, 476 931.033, 476 925.326 C 476 919.857, 470.103 917.019, 466.655 920.829 M 616.571 930.571 C 614.290 932.853, 614.644 935.720, 617.433 937.548 C 621.921 940.489, 626.453 935.866, 623.500 931.359 C 621.716 928.637, 618.834 928.309, 616.571 930.571" stroke="none" fill="#041c34" fill-rule="evenodd"/></svg>